<?xml version="1.0" encoding="utf-8"?>
<!-- Generator: Adobe Illustrator 23.0.1, SVG Export Plug-In . SVG Version: 6.00 Build 0)  -->
<svg version="1.1" id="Layer_1" xmlns="http://www.w3.org/2000/svg" xmlns:xlink="http://www.w3.org/1999/xlink" x="0px" y="0px"
	 viewBox="0 0 424.1 132.3" style="enable-background:new 0 0 424.1 132.3;" xml:space="preserve">
<style type="text/css">
	.st0{enable-background:new    ;}
</style>
<g class="st0">
	<path d="M75.5,2.5l-56.7,97.7h-2.4l20.9-36.4L1.6,2.5h31.6l19.9,34.1L72.7,2.5H75.5z M38.6,61.2l13-22.3L31.7,4.6H5.6L38.6,61.2z"
		/>
	<path d="M94.7,76.1H48.4c-0.6-0.1-1.1-0.3-1.4-0.7c-0.4-0.4-0.3-1,0.1-1.7L89.5,1c0.2-0.3,0.6-0.5,1.1-0.5c0.6,0,1,0.2,1.2,0.5
		l43.9,75.1H104L76.2,28.6L49.7,74h43.8L94.7,76.1z M90.6,3.8l-13,22.3l28,47.9h26.1L90.6,3.8z"/>
	<path d="M210.9,39.3h-41v36.8h-28.1V2.5h28.1v34.7h41V2.5h2.5v73.6h-2.5V39.3z M144.4,74h23V4.6h-23V74z"/>
	<path d="M286.6,41.9l19.2,32.8l42.1-72.2h2.8L307,77.6c-0.3,0.3-0.7,0.5-1.2,0.5c-0.5,0-0.9-0.2-1.1-0.5l-19.5-33.3l-19.4,33.3
		c-0.2,0.3-0.6,0.5-1.1,0.5c-0.5,0-0.9-0.2-1.2-0.5L219.7,2.5h31.6L279.1,50l4.7-8.1L260.6,2.5h49L286.6,41.9z M223.7,4.6l41,70.1
		l12.9-22.3L249.8,4.6H223.7z M285.2,39.5l20.3-34.9h-40.7L285.2,39.5z"/>
	<path d="M356.9,2.5h66.2v2.1H385v32.6h37.6v2.1H385V74h38.3v2.1h-66.4V2.5z M359.5,74h23V4.6h-23V74z"/>
</g>
<g class="st0">
	<path d="M85.8,85.9h41.9c0.3,0,0.5,0.1,0.7,0.3c0.1,0.2,0.1,0.5-0.1,0.8l-24.1,41.8h24.5v1.3H86.7c-0.5,0-0.9-0.2-1-0.6
		c-0.2-0.4-0.1-0.8,0.1-1.2l23.8-41.2H85.8V85.9z M88.3,128.8l24.1-41.6h-1.2l-24,41.6H88.3z M90.7,128.8l24.1-41.6h-1.2l-24,41.6
		H90.7z M93.1,128.8l24.1-41.6h-1.2l-24.1,41.6H93.1z M95.5,128.8l24.1-41.6h-1.3l-24.1,41.6H95.5z M97.9,128.8l24-41.6h-1.1
		l-24.1,41.6H97.9z M100.3,128.8l24.1-41.6h-1.3l-24.1,41.6H100.3z M102.6,128.8l24.1-41.6h-1l-24.1,41.6H102.6z"/>
	<path d="M160,130.1h-27.8c-0.4,0-0.7-0.2-0.9-0.4c-0.2-0.2-0.2-0.6,0.1-1L156.9,85c0.1-0.2,0.3-0.3,0.7-0.3c0.3,0,0.6,0.1,0.7,0.3
		l26.3,45.1h-19l-16.7-28.5L133,128.8h26.3L160,130.1z M166.5,128.8h1.2L150.3,99l-0.6,1L166.5,128.8z M151.6,96.9l-0.6,1l18,30.8
		h1.1L151.6,96.9z M152.7,95l-0.5,1l19.1,32.9h1.3L152.7,95z M173.8,128.8h1.3l-21.1-36l-0.6,1.1L173.8,128.8z M155.1,90.8l-0.5,1
		l21.7,37h1.3L155.1,90.8z M156.4,88.7l-0.6,1l22.9,39.1h1.3L156.4,88.7z M157.5,86.7l-0.5,1l24.1,41.2h1.1L157.5,86.7z"/>
	<path d="M180.8,108c0-3.2,0.6-6.1,1.8-8.9c1.2-2.8,2.8-5.2,4.9-7.3c2.1-2.1,4.5-3.7,7.3-4.9c2.8-1.2,5.7-1.8,8.9-1.8
		c3.2,0,6.1,0.6,8.9,1.8c2.8,1.2,5.2,2.8,7.3,4.9c2.1,2.1,3.7,4.5,4.9,7.3s1.8,5.8,1.8,8.9c0,3.2-0.6,6.1-1.8,8.9s-2.8,5.2-4.9,7.3
		c-2.1,2.1-4.5,3.7-7.3,4.9c-2.8,1.2-5.8,1.8-8.9,1.8c-3.2,0-6.1-0.6-8.9-1.8c-2.8-1.2-5.2-2.8-7.3-4.9c-2.1-2.1-3.7-4.5-4.9-7.3
		C181.4,114.1,180.8,111.1,180.8,108z M182.3,108c0,2.4,0.4,4.7,1.1,6.8v-13.7C182.7,103.3,182.3,105.6,182.3,108z M185.6,96.4
		c-0.2,0.3-0.4,0.7-0.6,1c-0.2,0.3-0.4,0.7-0.5,1v19.3c0.3,0.7,0.6,1.3,1.1,2V96.4z M187.8,93.4c-0.2,0.2-0.4,0.5-0.6,0.7
		c-0.2,0.2-0.4,0.5-0.6,0.7v26.3c0.2,0.2,0.4,0.5,0.6,0.7c0.2,0.2,0.4,0.5,0.6,0.7V93.4z M190.2,91.2c-0.2,0.2-0.4,0.3-0.6,0.5
		c-0.2,0.2-0.4,0.3-0.6,0.5v31.6c0.3,0.4,0.7,0.7,1.1,1V91.2z M191.2,90.3v35.3l1.1,0.8V89.6L191.2,90.3z M193.4,89v38
		c0.2,0.1,0.4,0.2,0.6,0.3c0.2,0.1,0.4,0.2,0.6,0.3V88.4L193.4,89z M196.9,87.4c-0.2,0.1-0.4,0.2-0.6,0.2c-0.2,0.1-0.4,0.1-0.6,0.2
		v40.3c0.3,0.2,0.7,0.3,1.1,0.4V87.4z M203.7,86.3c-1.9,0-3.7,0.2-5.3,0.7v42c0.8,0.2,1.7,0.4,2.6,0.5c0.9,0.1,1.8,0.2,2.7,0.2
		c3,0,5.8-0.6,8.4-1.7c2.6-1.1,4.9-2.7,6.8-4.6s3.5-4.3,4.6-6.9c1.1-2.6,1.7-5.5,1.7-8.5s-0.6-5.8-1.7-8.5c-1.1-2.6-2.7-4.9-4.6-6.9
		c-1.9-2-4.2-3.5-6.8-4.6C209.5,86.8,206.7,86.3,203.7,86.3z"/>
	<path d="M231.4,85.9h21.8l17.6,19.3V85.9h1.5v43.4c0,0.6-0.2,0.9-0.5,1.1c-0.3,0.2-0.7,0.1-1-0.3l-37.9-41.2v41.2h-1.6V85.9z
		 M233.3,87.2l37.5,40.9v-1.7l-35.9-39.2H233.3z M236.3,87.2l34.5,37.6v-1.6l-33-36.1H236.3z M239.2,87.2l31.6,34.4V120l-30-32.8
		H239.2z M242.1,87.2l28.7,31.3v-1.7l-27.1-29.6H242.1z M245.1,87.2l25.7,28v-1.6l-24.2-26.5H245.1z M248,87.2l22.8,24.9v-1.6
		l-21.3-23.3H248z M250.9,87.2l19.9,21.7v-1.6l-18.4-20.1H250.9z"/>
	<path d="M319.3,108h-24.6v22.1h-16.9V85.9h16.9v20.8h24.6V85.9h1.5v44.2h-1.5V108z M279.4,128.8h1.1V87.2h-1.1V128.8z M282.6,87.2
		h-1.1v41.6h1.1V87.2z M284.7,87.2h-1.1v41.6h1.1V87.2z M286.9,87.2h-1.1v41.6h1.1V87.2z M289,87.2h-1.1v41.6h1.1V87.2z M291.1,87.2
		h-1.1v41.6h1.1V87.2z M292.2,87.2v41.6h1V87.2H292.2z"/>
	<path d="M326.4,85.9h39.7v1.3h-22.9v19.6h22.6v1.3h-22.6v20.8h23v1.3h-39.8V85.9z M327.9,128.8h1.1V87.2h-1.1V128.8z M331.2,87.2
		h-1.1v41.6h1.1V87.2z M333.3,87.2h-1.1v41.6h1.1V87.2z M335.4,87.2h-1.1v41.6h1.1V87.2z M337.5,87.2h-1.1v41.6h1.1V87.2z
		 M339.7,87.2h-1.1v41.6h1.1V87.2z M340.7,87.2v41.6h1V87.2H340.7z"/>
</g>
</svg>
