<?xml version="1.0" encoding="utf-8"?>
<!-- Generator: Adobe Illustrator 23.0.1, SVG Export Plug-In . SVG Version: 6.00 Build 0)  -->
<svg version="1.1" id="Layer_1" xmlns="http://www.w3.org/2000/svg" xmlns:xlink="http://www.w3.org/1999/xlink" x="0px" y="0px"
	 viewBox="0 0 142.73 24.35" style="enable-background:new 0 0 142.73 24.35;" xml:space="preserve">
<g>
	<path d="M1.77,1.32h20.97c0.16,0,0.27,0.06,0.34,0.17c0.07,0.11,0.06,0.25-0.04,0.41L11.01,22.77h12.27v0.63H2.22
		c-0.26,0-0.43-0.09-0.51-0.29c-0.08-0.19-0.07-0.38,0.03-0.58L13.65,1.95H1.77V1.32z M3,22.77L15.06,1.95h-0.6l-12,20.82H3z
		 M4.2,22.77L16.26,1.95h-0.6l-12,20.82H4.2z M5.4,22.77L17.43,1.95h-0.6L4.8,22.77H5.4z M6.63,22.77L18.69,1.95h-0.66L6,22.77H6.63
		z M7.8,22.77l12-20.82h-0.57L7.17,22.77H7.8z M9,22.77L21.06,1.95h-0.63L8.4,22.77H9z M10.14,22.77L22.17,1.95h-0.51L9.63,22.77
		H10.14z"/>
	<path d="M38.85,23.4H24.96c-0.18-0.02-0.33-0.09-0.44-0.21c-0.11-0.12-0.1-0.29,0.04-0.51L37.29,0.87c0.06-0.1,0.17-0.15,0.35-0.15
		c0.17,0,0.29,0.05,0.34,0.15L51.15,23.4h-9.51L33.3,9.15l-7.95,13.62h13.14L38.85,23.4z M42.12,22.77h0.6l-8.7-14.88l-0.3,0.51
		L42.12,22.77z M34.65,6.84l-0.3,0.51l9,15.42h0.57L34.65,6.84z M35.22,5.85l-0.27,0.48l9.57,16.44h0.63L35.22,5.85z M45.75,22.77
		h0.66l-10.56-18l-0.3,0.54L45.75,22.77z M36.42,3.78l-0.27,0.48l10.83,18.51h0.63L36.42,3.78z M37.05,2.7l-0.3,0.51l11.46,19.56
		h0.63L37.05,2.7z M37.62,1.71l-0.27,0.48l12.06,20.58h0.54L37.62,1.71z"/>
	<path d="M49.26,12.36c0-1.58,0.3-3.07,0.9-4.47s1.42-2.62,2.46-3.66c1.04-1.04,2.25-1.86,3.65-2.46s2.88-0.9,4.46-0.9
		c1.58,0,3.07,0.3,4.47,0.9c1.4,0.6,2.62,1.42,3.66,2.46c1.04,1.04,1.86,2.26,2.46,3.66c0.6,1.4,0.9,2.89,0.9,4.47
		c0,1.58-0.3,3.07-0.9,4.47c-0.6,1.4-1.42,2.62-2.46,3.66c-1.04,1.04-2.26,1.86-3.66,2.46c-1.4,0.6-2.89,0.9-4.47,0.9
		c-1.58,0-3.06-0.3-4.46-0.9c-1.39-0.6-2.6-1.42-3.65-2.46c-1.04-1.04-1.86-2.26-2.46-3.66S49.26,13.94,49.26,12.36z M50.01,12.36
		c0,1.2,0.18,2.34,0.54,3.42V8.94C50.19,10.02,50.01,11.16,50.01,12.36z M51.66,6.57c-0.1,0.16-0.19,0.33-0.28,0.5
		c-0.09,0.17-0.18,0.33-0.26,0.5v9.63c0.14,0.34,0.32,0.67,0.54,0.99V6.57z M52.77,5.07c-0.1,0.12-0.2,0.24-0.29,0.36
		C52.4,5.55,52.3,5.67,52.2,5.79v13.14c0.1,0.12,0.2,0.24,0.29,0.36c0.09,0.12,0.18,0.24,0.29,0.36V5.07z M53.94,3.96
		c-0.1,0.08-0.2,0.16-0.29,0.24c-0.09,0.08-0.19,0.17-0.29,0.27v15.81c0.16,0.18,0.35,0.34,0.57,0.48V3.96z M54.48,3.54v17.64
		l0.54,0.39V3.18L54.48,3.54z M55.56,2.85v19.02c0.1,0.06,0.2,0.12,0.3,0.16c0.1,0.05,0.2,0.11,0.3,0.17V2.55L55.56,2.85z
		 M57.3,2.07c-0.1,0.04-0.19,0.08-0.29,0.1c-0.09,0.03-0.19,0.07-0.28,0.1v20.16c0.14,0.08,0.33,0.15,0.57,0.21V2.07z M60.72,1.5
		c-0.94,0-1.83,0.12-2.67,0.36v21c0.42,0.1,0.85,0.19,1.31,0.25c0.45,0.07,0.9,0.1,1.36,0.1c1.48,0,2.88-0.28,4.19-0.85
		c1.31-0.57,2.45-1.34,3.42-2.32c0.97-0.98,1.73-2.13,2.29-3.45s0.84-2.73,0.84-4.23s-0.28-2.91-0.84-4.23s-1.33-2.47-2.29-3.45
		c-0.97-0.98-2.11-1.75-3.42-2.32C63.6,1.79,62.2,1.5,60.72,1.5z"/>
	<path d="M74.55,1.32h10.89l8.82,9.66V1.32h0.75v21.69c0,0.28-0.08,0.46-0.25,0.54c-0.17,0.08-0.33,0.03-0.5-0.15L75.33,2.79V23.4
		h-0.78V1.32z M75.51,1.95l18.75,20.43v-0.84L76.29,1.95H75.51z M77.01,1.95l17.25,18.81v-0.78L77.76,1.95H77.01z M78.48,1.95
		l15.78,17.22v-0.81l-15-16.41H78.48z M79.92,1.95l14.34,15.63v-0.84L80.7,1.95H79.92z M81.42,1.95l12.84,14.01v-0.78L82.14,1.95
		H81.42z M82.86,1.95l11.4,12.45v-0.81L83.61,1.95H82.86z M84.33,1.95l9.93,10.86V12L85.05,1.95H84.33z"/>
	<path d="M118.5,12.36h-12.3V23.4h-8.43V1.32h8.43v10.41h12.3V1.32h0.75V23.4h-0.75V12.36z M98.55,22.77h0.54V1.95h-0.54V22.77z
		 M100.17,1.95h-0.54v20.82h0.54V1.95z M101.22,1.95h-0.54v20.82h0.54V1.95z M102.3,1.95h-0.54v20.82h0.54V1.95z M103.35,1.95h-0.54
		v20.82h0.54V1.95z M104.43,1.95h-0.54v20.82h0.54V1.95z M104.94,1.95v20.82h0.51V1.95H104.94z"/>
	<path d="M122.04,1.32h19.86v0.63h-11.43v9.78h11.28v0.63h-11.28v10.41h11.49v0.63h-19.92V1.32z M122.82,22.77h0.54V1.95h-0.54
		V22.77z M124.44,1.95h-0.54v20.82h0.54V1.95z M125.49,1.95h-0.54v20.82h0.54V1.95z M126.57,1.95h-0.54v20.82h0.54V1.95z
		 M127.62,1.95h-0.54v20.82h0.54V1.95z M128.7,1.95h-0.54v20.82h0.54V1.95z M129.21,1.95v20.82h0.51V1.95H129.21z"/>
</g>
</svg>
